<?xml version="1.0" standalone="no"?>
<!DOCTYPE svg PUBLIC "-//W3C//DTD SVG 20010904//EN"
 "http://www.w3.org/TR/2001/REC-SVG-20010904/DTD/svg10.dtd">
<svg version="1.0" xmlns="http://www.w3.org/2000/svg"
 width="200.000000pt" height="200.000000pt" viewBox="0 0 200.000000 200.000000"
 preserveAspectRatio="xMidYMid meet">
<metadata>
Created by potrace 1.11, written by Peter Selinger 2001-2013
</metadata>
<g transform="translate(0.000000,200.000000) scale(0.100000,-0.100000)"
fill="#000000" stroke="none">
<path d="M874 1710 c-144 -26 -267 -93 -379 -205 -91 -91 -144 -175 -182 -290
-23 -71 -26 -96 -26 -215 0 -119 3 -144 26 -215 38 -115 91 -199 182 -290 91
-91 175 -144 290 -182 71 -23 96 -26 215 -26 119 0 144 3 215 26 115 38 199
91 290 182 91 91 144 175 182 290 23 71 26 96 26 215 0 119 -3 144 -26 215
-38 115 -91 199 -182 290 -139 140 -284 203 -475 210 -58 2 -128 0 -156 -5z
m206 -552 c132 -67 132 -249 0 -315 -56 -29 -104 -29 -160 0 -132 66 -132 248
0 315 24 12 60 22 80 22 20 0 56 -10 80 -22z m-295 -207 c20 -92 119 -171 215
-171 96 0 195 79 215 171 l7 29 230 0 229 0 -7 -57 c-32 -270 -221 -493 -484
-575 -110 -33 -283 -32 -393 4 -255 84 -440 308 -472 571 l-7 57 230 0 230 0
7 -29z"/>
<path d="M951 1086 c-87 -48 -50 -186 49 -186 51 0 100 49 100 99 0 75 -83
124 -149 87z"/>
<path d="M490 649 c0 -7 35 -46 78 -88 154 -152 355 -211 566 -166 65 14 210
77 222 97 13 21 -6 16 -82 -22 -177 -90 -360 -91 -542 -4 -58 28 -96 56 -156
115 -43 44 -80 79 -82 79 -2 0 -4 -5 -4 -11z"/>
<path d="M1487 653 c-4 -3 -7 -13 -7 -21 0 -12 3 -12 15 -2 8 7 15 16 15 21 0
11 -14 12 -23 2z"/>
<path d="M1420 575 c-13 -14 -20 -28 -17 -32 8 -7 57 35 57 49 0 15 -16 8 -40
-17z"/>
</g>
</svg>
